<svg id="minty-banner-svg" fill="none" viewBox="0 0 844 74" xmlns="http://www.w3.org/2000/svg">
                <path d="m12.66 3.8125l16.734 41.766 16.734-41.766h8.7539v51.188h-6.75v-19.934l0.6328-21.516-16.805 41.449h-5.1679l-16.77-41.344 0.668 21.41v19.934h-6.75v-51.188h8.7188z" stroke="#fff" stroke-width="3" />
                <path d="m81.883 32.184c-5.789-1.6641-10.008-3.7031-12.656-6.1172-2.625-2.4375-3.9375-5.4375-3.9375-9 0-4.0312 1.6054-7.3594 4.8164-9.9844 3.2343-2.6484 7.4297-3.9726 12.586-3.9726 3.5156 0 6.6445 0.67968 9.3867 2.0391 2.7657 1.3594 4.8985 3.2344 6.3985 5.625 1.5234 2.3907 2.2854 5.0039 2.2854 7.8399h-6.7854c0-3.0938-0.9844-5.5195-2.9532-7.2774-1.9687-1.7812-4.7461-2.6718-8.332-2.6718-3.3281 0-5.9297 0.73828-7.8047 2.2148-1.8515 1.4531-2.7773 3.4805-2.7773 6.082 0 2.086 0.8789 3.8555 2.6367 5.3086 1.7812 1.4297 4.793 2.7422 9.0351 3.9375 4.2657 1.1953 7.5938 2.5196 9.9844 3.9727 2.4141 1.4297 4.1953 3.1055 5.3438 5.0273 1.1716 1.9219 1.7576 4.1836 1.7576 6.7852 0 4.1484-1.617 7.4766-4.8514 9.9844-3.2344 2.4843-7.5586 3.7265-12.973 3.7265-3.5157 0-6.7969-0.6679-9.8438-2.0039-3.0469-1.3594-5.4023-3.2109-7.0664-5.5547-1.6406-2.3437-2.4609-5.0039-2.4609-7.9804h6.7851c0 3.0937 1.1368 5.5429 3.4102 7.3476 2.2969 1.7813 5.3555 2.6719 9.1758 2.6719 3.5625 0 6.2929-0.7266 8.1914-2.1797 1.8984-1.4531 2.8476-3.4336 2.8476-5.9414s-0.8789-4.4414-2.6367-5.8008c-1.7578-1.3828-4.9453-2.7422-9.5625-4.0781z" stroke="#fff" stroke-width="3" />
                <path d="m124.63 32.184c-5.789-1.6641-10.008-3.7031-12.656-6.1172-2.625-2.4375-3.938-5.4375-3.938-9 0-4.0312 1.606-7.3594 4.816-9.9844 3.235-2.6484 7.43-3.9726 12.586-3.9726 3.516 0 6.645 0.67968 9.387 2.0391 2.766 1.3594 4.899 3.2344 6.399 5.625 1.523 2.3907 2.285 5.0039 2.285 7.8399h-6.785c0-3.0938-0.985-5.5195-2.954-7.2774-1.968-1.7812-4.746-2.6718-8.332-2.6718-3.328 0-5.929 0.73828-7.804 2.2148-1.852 1.4531-2.778 3.4805-2.778 6.082 0 2.086 0.879 3.8555 2.637 5.3086 1.781 1.4297 4.793 2.7422 9.035 3.9375 4.266 1.1953 7.594 2.5196 9.985 3.9727 2.414 1.4297 4.195 3.1055 5.343 5.0273 1.172 1.9219 1.758 4.1836 1.758 6.7852 0 4.1484-1.617 7.4766-4.851 9.9844-3.235 2.4843-7.559 3.7265-12.973 3.7265-3.516 0-6.797-0.6679-9.844-2.0039-3.047-1.3594-5.402-3.2109-7.066-5.5547-1.641-2.3437-2.461-5.0039-2.461-7.9804h6.785c0 3.0937 1.137 5.5429 3.41 7.3476 2.297 1.7813 5.356 2.6719 9.176 2.6719 3.562 0 6.293-0.7266 8.191-2.1797 1.899-1.4531 2.848-3.4336 2.848-5.9414s-0.879-4.4414-2.637-5.8008c-1.757-1.3828-4.945-2.7422-9.562-4.0781z" stroke="#fff" stroke-width="3" />
                <path d="m182.68 35.91h-17.156v-5.3086h17.156v5.3086z" stroke="#fff" stroke-width="3" />
                <path d="m216.64 3.8125l16.734 41.766 16.734-41.766h8.754v51.188h-6.75v-19.934l0.633-21.516-16.804 41.449h-5.168l-16.77-41.344 0.668 21.41v19.934h-6.75v-51.188h8.719z" stroke="#fff" stroke-width="3" />
                <path d="m276.82 55h-6.504v-38.039h6.504v38.039zm-7.031-48.129c0-1.0547 0.316-1.9453 0.949-2.6719 0.656-0.72656 1.617-1.0898 2.883-1.0898s2.227 0.36328 2.883 1.0898 0.984 1.6172 0.984 2.6719c0 1.0547-0.328 1.9336-0.984 2.6367-0.656 0.70309-1.617 1.0547-2.883 1.0547s-2.227-0.3516-2.883-1.0547c-0.633-0.70312-0.949-1.582-0.949-2.6367z" stroke="#fff" stroke-width="3" />
                <path d="m293.42 16.961l0.211 4.7813c2.906-3.6563 6.703-5.4844 11.391-5.4844 8.039 0 12.093 4.5352 12.164 13.606v25.137h-6.504v-25.172c-0.024-2.7422-0.657-4.7695-1.899-6.082-1.219-1.3125-3.129-1.9688-5.73-1.9688-2.11 0-3.961 0.5625-5.555 1.6875s-2.836 2.6016-3.726 4.4297v27.106h-6.504v-38.039h6.152z" stroke="#fff" stroke-width="3" />
                <path d="m335.82 7.75v9.2109h7.102v5.0274h-7.102v23.59c0 1.5235 0.317 2.6719 0.95 3.4453 0.632 0.75 1.711 1.125 3.234 1.125 0.75 0 1.781-0.1406 3.094-0.4218v5.2734c-1.711 0.4688-3.375 0.7031-4.992 0.7031-2.907 0-5.098-0.8789-6.575-2.6367-1.476-1.7578-2.215-4.2539-2.215-7.4883v-23.59h-6.925v-5.0274h6.925v-9.2109h6.504z" stroke="#fff" stroke-width="3" />
                <path d="m362.99 45.473l8.86-28.512h6.96l-15.292 43.91c-2.368 6.3281-6.129 9.4922-11.286 9.4922l-1.23-0.1055-2.426-0.457v-5.2735l1.758 0.1407c2.203 0 3.914-0.4453 5.133-1.336 1.242-0.8906 2.261-2.5195 3.058-4.8867l1.442-3.8672-13.571-37.617h7.102l9.492 28.512z" stroke="#fff" stroke-width="3" />
                <path d="m418.61 32.184c-5.789-1.6641-10.007-3.7031-12.656-6.1172-2.625-2.4375-3.937-5.4375-3.937-9 0-4.0312 1.605-7.3594 4.816-9.9844 3.234-2.6484 7.43-3.9726 12.586-3.9726 3.516 0 6.644 0.67968 9.387 2.0391 2.765 1.3594 4.898 3.2344 6.398 5.625 1.524 2.3907 2.285 5.0039 2.285 7.8399h-6.785c0-3.0938-0.984-5.5195-2.953-7.2774-1.969-1.7812-4.746-2.6718-8.332-2.6718-3.328 0-5.93 0.73828-7.805 2.2148-1.851 1.4531-2.777 3.4805-2.777 6.082 0 2.086 0.879 3.8555 2.637 5.3086 1.781 1.4297 4.793 2.7422 9.035 3.9375 4.265 1.1953 7.594 2.5196 9.984 3.9727 2.414 1.4297 4.196 3.1055 5.344 5.0273 1.172 1.9219 1.758 4.1836 1.758 6.7852 0 4.1484-1.617 7.4766-4.852 9.9844-3.234 2.4843-7.558 3.7265-12.972 3.7265-3.516 0-6.797-0.6679-9.844-2.0039-3.047-1.3594-5.403-3.2109-7.067-5.5547-1.64-2.3437-2.461-5.0039-2.461-7.9804h6.786c0 3.0937 1.136 5.5429 3.41 7.3476 2.297 1.7813 5.355 2.6719 9.176 2.6719 3.562 0 6.292-0.7266 8.191-2.1797 1.898-1.4531 2.848-3.4336 2.848-5.9414s-0.879-4.4414-2.637-5.8008c-1.758-1.3828-4.945-2.7422-9.563-4.0781z" stroke="#fff" stroke-width="3" />
                <path d="m461.04 55.703c-5.156 0-9.352-1.6875-12.586-5.0625-3.234-3.3984-4.852-7.9336-4.852-13.605v-1.1954c0-3.7734 0.715-7.1367 2.145-10.09 1.453-2.9766 3.469-5.2969 6.047-6.9609 2.601-1.6875 5.414-2.5313 8.437-2.5313 4.946 0 8.789 1.6289 11.532 4.8867 2.742 3.2578 4.113 7.9219 4.113 13.992v2.7071h-25.77c0.094 3.75 1.184 6.7851 3.27 9.1054 2.109 2.2969 4.781 3.4453 8.016 3.4453 2.296 0 4.242-0.4687 5.835-1.4062 1.594-0.9375 2.989-2.1797 4.184-3.7266l3.973 3.0938c-3.188 4.8984-7.969 7.3476-14.344 7.3476zm-0.809-34.102c-2.625 0-4.828 0.9609-6.609 2.8828-1.781 1.8984-2.883 4.5703-3.305 8.0156h19.055v-0.4922c-0.187-3.3047-1.078-5.8594-2.672-7.664-1.594-1.8282-3.75-2.7422-6.469-2.7422z" stroke="#fff" stroke-width="3" />
                <path d="m489.59 16.961l0.211 4.7813c2.906-3.6563 6.703-5.4844 11.39-5.4844 8.039 0 12.094 4.5352 12.164 13.606v25.137h-6.503v-25.172c-0.024-2.7422-0.657-4.7695-1.899-6.082-1.219-1.3125-3.129-1.9688-5.73-1.9688-2.11 0-3.961 0.5625-5.555 1.6875s-2.836 2.6016-3.727 4.4297v27.106h-6.503v-38.039h6.152z" stroke="#fff" stroke-width="3" />
                <path d="m545.31 44.91c0-1.7579-0.667-3.1172-2.003-4.0782-1.313-0.9843-3.621-1.8281-6.926-2.5312-3.281-0.7031-5.895-1.5469-7.84-2.5313-1.922-0.9843-3.352-2.1562-4.289-3.5156-0.914-1.3594-1.371-2.9766-1.371-4.8516 0-3.1171 1.312-5.7539 3.937-7.9101 2.649-2.1563 6.024-3.2344 10.125-3.2344 4.313 0 7.805 1.1133 10.477 3.3399 2.695 2.2265 4.043 5.0742 4.043 8.5429h-6.539c0-1.7812-0.762-3.3164-2.285-4.6054-1.5-1.2891-3.399-1.9336-5.696-1.9336-2.367 0-4.218 0.5156-5.554 1.5468-1.336 1.0313-2.004 2.3789-2.004 4.043 0 1.5703 0.621 2.7539 1.863 3.5508s3.48 1.5586 6.715 2.2851c3.258 0.7266 5.894 1.5938 7.91 2.6016s3.504 2.2266 4.465 3.6563c0.984 1.4062 1.476 3.1289 1.476 5.1679 0 3.3985-1.359 6.1289-4.078 8.1914-2.718 2.0391-6.246 3.0586-10.582 3.0586-3.047 0-5.742-0.539-8.086-1.6172-2.343-1.0781-4.183-2.5781-5.519-4.5-1.313-1.9453-1.969-4.0429-1.969-6.2929h6.504c0.117 2.1797 0.984 3.914 2.602 5.2031 1.64 1.2656 3.796 1.8984 6.468 1.8984 2.461 0 4.43-0.4922 5.906-1.4765 1.5-1.0078 2.25-2.3438 2.25-4.0078z" stroke="#fff" stroke-width="3" />
                <path d="m558.57 35.629c0-3.7266 0.727-7.0781 2.18-10.055 1.477-2.9765 3.516-5.2734 6.117-6.8906 2.625-1.6172 5.614-2.4258 8.965-2.4258 5.18 0 9.363 1.793 12.551 5.3789 3.211 3.586 4.816 8.3555 4.816 14.309v0.457c0 3.7032-0.715 7.0313-2.144 9.9844-1.406 2.9297-3.434 5.2149-6.082 6.8555-2.625 1.6406-5.649 2.4609-9.071 2.4609-5.156 0-9.339-1.7929-12.55-5.3789-3.188-3.5859-4.782-8.332-4.782-14.238v-0.457zm6.539 0.7734c0 4.2188 0.973 7.6055 2.918 10.16 1.969 2.5547 4.594 3.832 7.875 3.832 3.305 0 5.93-1.289 7.875-3.8672 1.946-2.6015 2.918-6.2343 2.918-10.898 0-4.1719-0.996-7.5469-2.988-10.125-1.969-2.6016-4.594-3.9023-7.875-3.9023-3.211 0-5.801 1.2773-7.769 3.832-1.969 2.5547-2.954 6.2109-2.954 10.969z" stroke="#fff" stroke-width="3" />
                <path d="m619.74 22.797c-0.984-0.1641-2.05-0.2461-3.199-0.2461-4.266 0-7.16 1.8164-8.684 5.4492v27h-6.503v-38.039h6.328l0.105 4.3946c2.133-3.3985 5.156-5.0977 9.07-5.0977 1.266 0 2.227 0.1641 2.883 0.4922v6.0469z" stroke="#fff" stroke-width="3" />
                <path d="m659.71 32.184c-5.789-1.6641-10.008-3.7031-12.656-6.1172-2.625-2.4375-3.938-5.4375-3.938-9 0-4.0312 1.606-7.3594 4.817-9.9844 3.234-2.6484 7.429-3.9726 12.586-3.9726 3.515 0 6.644 0.67968 9.386 2.0391 2.766 1.3594 4.899 3.2344 6.399 5.625 1.523 2.3907 2.285 5.0039 2.285 7.8399h-6.785c0-3.0938-0.985-5.5195-2.953-7.2774-1.969-1.7812-4.747-2.6718-8.332-2.6718-3.329 0-5.93 0.73828-7.805 2.2148-1.852 1.4531-2.777 3.4805-2.777 6.082 0 2.086 0.878 3.8555 2.636 5.3086 1.781 1.4297 4.793 2.7422 9.035 3.9375 4.266 1.1953 7.594 2.5196 9.985 3.9727 2.414 1.4297 4.195 3.1055 5.344 5.0273 1.171 1.9219 1.757 4.1836 1.757 6.7852 0 4.1484-1.617 7.4766-4.851 9.9844-3.235 2.4843-7.559 3.7265-12.973 3.7265-3.516 0-6.797-0.6679-9.844-2.0039-3.047-1.3594-5.402-3.2109-7.066-5.5547-1.641-2.3437-2.461-5.0039-2.461-7.9804h6.785c0 3.0937 1.137 5.5429 3.41 7.3476 2.297 1.7813 5.356 2.6719 9.176 2.6719 3.563 0 6.293-0.7266 8.191-2.1797 1.899-1.4531 2.848-3.4336 2.848-5.9414s-0.879-4.4414-2.637-5.8008c-1.757-1.3828-4.945-2.7422-9.562-4.0781z" stroke="#fff" stroke-width="3" />
                <path d="m702.14 55.703c-5.157 0-9.352-1.6875-12.586-5.0625-3.235-3.3984-4.852-7.9336-4.852-13.605v-1.1954c0-3.7734 0.715-7.1367 2.145-10.09 1.453-2.9766 3.468-5.2969 6.046-6.9609 2.602-1.6875 5.414-2.5313 8.438-2.5313 4.945 0 8.789 1.6289 11.531 4.8867s4.113 7.9219 4.113 13.992v2.7071h-25.769c0.094 3.75 1.184 6.7851 3.269 9.1054 2.11 2.2969 4.782 3.4453 8.016 3.4453 2.297 0 4.242-0.4687 5.836-1.4062s2.988-2.1797 4.184-3.7266l3.972 3.0938c-3.187 4.8984-7.968 7.3476-14.343 7.3476zm-0.809-34.102c-2.625 0-4.828 0.9609-6.609 2.8828-1.782 1.8984-2.883 4.5703-3.305 8.0156h19.055v-0.4922c-0.188-3.3047-1.079-5.8594-2.672-7.664-1.594-1.8282-3.75-2.7422-6.469-2.7422z" stroke="#fff" stroke-width="3" />
                <path d="m742.93 22.797c-0.985-0.1641-2.051-0.2461-3.199-0.2461-4.266 0-7.161 1.8164-8.684 5.4492v27h-6.504v-38.039h6.328l0.106 4.3946c2.132-3.3985 5.156-5.0977 9.07-5.0977 1.266 0 2.227 0.1641 2.883 0.4922v6.0469z" stroke="#fff" stroke-width="3" />
                <path d="m762.12 46.176l9.422-29.215h6.645l-13.641 38.039h-4.957l-13.781-38.039h6.644l9.668 29.215z" stroke="#fff" stroke-width="3" />
                <path d="m799.74 55.703c-5.156 0-9.351-1.6875-12.586-5.0625-3.234-3.3984-4.851-7.9336-4.851-13.605v-1.1954c0-3.7734 0.715-7.1367 2.144-10.09 1.453-2.9766 3.469-5.2969 6.047-6.9609 2.602-1.6875 5.414-2.5313 8.438-2.5313 4.945 0 8.789 1.6289 11.531 4.8867s4.113 7.9219 4.113 13.992v2.7071h-25.769c0.093 3.75 1.183 6.7851 3.269 9.1054 2.11 2.2969 4.781 3.4453 8.016 3.4453 2.297 0 4.242-0.4687 5.836-1.4062s2.988-2.1797 4.183-3.7266l3.973 3.0938c-3.187 4.8984-7.969 7.3476-14.344 7.3476zm-0.808-34.102c-2.625 0-4.828 0.9609-6.61 2.8828-1.781 1.8984-2.882 4.5703-3.304 8.0156h19.054v-0.4922c-0.187-3.3047-1.078-5.8594-2.672-7.664-1.593-1.8282-3.75-2.7422-6.468-2.7422z" stroke="#fff" stroke-width="3" />
                <path d="m840.52 22.797c-0.985-0.1641-2.051-0.2461-3.2-0.2461-4.265 0-7.16 1.8164-8.683 5.4492v27h-6.504v-38.039h6.328l0.105 4.3946c2.133-3.3985 5.157-5.0977 9.071-5.0977 1.265 0 2.226 0.1641 2.883 0.4922v6.0469z" stroke="#fff" stroke-width="3" />
            </svg>